Coordinates
version=1
nRows=8
nColumns=36
inDegrees=yes

Units are S.I. units (second, meters, Newtons, ...)
If the header above contains a line with 'inDegrees', this indicates whether rotational values are in degrees (yes) or radians (no).

endheader
time	pelvis_tilt	pelvis_list	pelvis_rotation	pelvis_tx	pelvis_ty	pelvis_tz	hip_flexion_r	hip_adduction_r	hip_rotation_r	knee_angle_r	knee_angle_r_beta	ankle_angle_r	subtalar_angle_r	mtp_angle_r	hip_flexion_l	hip_adduction_l	hip_rotation_l	knee_angle_l	knee_angle_l_beta	ankle_angle_l	subtalar_angle_l	mtp_angle_l	lumbar_extension	lumbar_bending	lumbar_rotation	arm_flex_r	arm_add_r	arm_rot_r	elbow_flex_r	pro_sup_r	arm_flex_l	arm_add_l	arm_rot_l	elbow_flex_l	pro_sup_l
      1.21250000	    -22.19120220	      1.89071857	     -3.41967550	     -0.96410684	      1.25648346	     -0.06050143	     42.90596701	     -5.94953114	     -4.88203482	     58.79083497	      1.02609364	     35.56444910	     10.09423822	     -7.49999987	     40.97391228	     -5.26682376	     -8.46560606	     58.45925714	      1.02030652	     34.71458203	     11.51338738	     -7.49999987	    -23.71495903	     -1.66197646	      1.66109907	      4.29631436	     -6.62222121	     -9.71465087	     28.55721779	     79.43705997	      8.54995694	     -8.20449542	      0.53277233	     26.86132039	     77.29714116
      1.21666670	    -22.02803980	      1.87832436	     -3.55982750	     -0.95537136	      1.25791809	     -0.05766242	     42.37175568	     -6.06518109	     -5.09630730	     58.87770190	      1.02760975	     36.02402225	     11.02737927	     -7.49999987	     40.26754880	     -5.44473921	     -8.74968365	     58.51713303	      1.02131664	     34.98815619	     11.74881533	     -7.49999987	    -23.68687387	     -1.71086817	      1.79180792	      5.39875893	     -6.62289093	     -9.12741331	     29.31624531	     79.76453236	      9.56495440	     -7.96041709	      0.83620373	     27.42541195	     77.63406186
      1.22083330	    -21.62535753	      1.79855087	     -3.76956521	     -0.95038262	      1.25411657	     -0.05681945	     41.63387781	     -6.09891359	     -5.18862187	     59.32248026	      1.03537260	     36.65042080	     11.84429219	     -7.49999987	     39.57621892	     -5.70181856	     -8.92353395	     58.86219273	      1.02733907	     35.36524521	     12.15250101	     -7.49999987	    -24.04246739	     -1.73580023	      1.96829471	      6.60572717	     -6.57936473	     -8.31014534	     30.24160226	     78.46128051	     10.51410636	     -7.70277919	      0.83930195	     28.12225533	     76.46485133
      1.22500000	    -20.99515554	      1.71130940	     -3.94661971	     -0.94482727	      1.25538041	     -0.05771458	     40.42356427	     -6.08263602	     -5.10466758	     59.32817868	      1.03547206	     37.18007366	     12.71864214	     -7.49999987	     38.45130236	     -5.96070186	     -9.30952228	     59.15821280	      1.03250559	     35.56640989	     12.62272861	     -7.49999987	    -24.71028495	     -1.74150302	      2.02668588	      8.02600036	     -6.59756257	     -7.02018055	     31.07422886	     78.49591694	     11.66203155	     -7.58236946	      1.46376778	     28.79779958	     76.56332961
      1.22916670	    -20.86905929	      1.71374698	     -3.98775949	     -0.94362129	      1.25576237	     -0.05947036	     40.12908322	     -6.33875115	     -5.05693147	     59.66368619	      1.04132777	     37.45068284	     13.39490995	     -7.49999987	     38.27507000	     -5.96223616	     -9.43691821	     59.73578760	      1.04258617	     35.65727952	     13.14239835	     -7.49999987	    -24.96270723	     -1.75740616	      2.09051188	      9.34270383	     -6.49366638	     -6.63515161	     32.20529072	     78.02196808	     12.79643872	     -7.30828273	      1.55052761	     29.77351293	     76.12462286
      1.23333330	    -19.92593426	      1.69377659	     -4.01299781	     -0.94197570	      1.25782742	     -0.06176275	     38.96278745	     -6.77740915	     -5.20637702	     59.99145443	      1.04704840	     37.39198119	     13.50486338	     -7.49999987	     37.24269261	     -5.68872084	     -9.34102204	     59.99628075	      1.04713264	     35.65067402	     12.86378555	     -7.49999987	    -26.45050845	     -1.74516412	      2.03040144	     11.12782795	     -6.54018918	     -5.80567665	     33.35865388	     77.49563074	     14.40788582	     -7.02810325	      1.78825479	     30.69015688	     75.64011506
      1.23750000	    -19.16866504	      1.66379520	     -4.08241339	     -0.93966984	      1.25977068	     -0.06448009	     38.27344775	     -7.06060851	     -5.20457224	     60.41175598	      1.05438405	     37.15715679	     13.20866258	     -7.49999987	     36.37268237	     -5.40152045	     -9.31702555	     60.25611371	      1.05166758	     35.90998782	     12.36790894	     -7.49999987	    -27.84969102	     -1.58102379	      1.81159384	     13.01702899	     -6.68662812	     -4.84438069	     34.47961813	     77.22989394	     16.12476541	     -6.74106016	      2.23071281	     31.65354107	     75.44543294
      1.24166670	    -19.19383792	      1.71869705	     -4.11983112	     -0.94484520	      1.25641832	     -0.07062719	     38.97913164	     -7.58173927	     -5.23291228	     61.28104545	      1.06955601	     36.73637477	     12.86790750	     -7.49999987	     36.96625545	     -5.00652854	     -9.17853409	     60.99266434	      1.06452281	     35.70521251	     12.16321040	     -7.49999987	    -28.38842790	     -1.27727359	      1.68517518	     15.13806599	     -6.81566527	     -4.74231080	     35.32870040	     77.36493959	     18.02926975	     -6.12941680	      2.39116832	     32.51172548	     75.59465725
